# xmcd
#
# Track frame offsets: 
#        150
#        23122
#        37999
#        68751
#        92097
#        109939
#        130186
#        168801
#        179471
#        209740
#        229655
#        250052
#
# Disc length: 3619 seconds
#
# Revision: 0
# Processed by: cddbd v1.5.2PL0 Copyright (c) Steve Scherf et al.
# Submitted via: ExactAudioCopy v1.3
#
DISCID=9d0e210c
DTITLE=Snowy White - The Situation
DYEAR=2019
DGENRE=Blues
TTITLE0=The Situation
TTITLE1=This Feeling
TTITLE2=LA Skip
TTITLE3=Can't Seem To Do Much About It
TTITLE4=Crazy Situation Blues
TTITLE5=Blues In My Reflection
TTITLE6=Why Do I Still Have The Blues
TTITLE7=You Can't Take It With You
TTITLE8=Migration
TTITLE9=The Lying Game
TTITLE10=Hard Blues
TTITLE11=I Can't Imagine
EXTD=
EXTT0=
EXTT1=
EXTT2=
EXTT3=
EXTT4=
EXTT5=
EXTT6=
EXTT7=
EXTT8=
EXTT9=
EXTT10=
EXTT11=
PLAYORDER=
